<svg xmlns="http://www.w3.org/2000/svg" xmlns:xlink="http://www.w3.org/1999/xlink" class="railroad-diagram" width="265" height="62" viewBox="0 0 265 62">
<style type="text/css">svg.railroad-diagram {
    background-color: hsl(30,20%,95%);
}
svg.railroad-diagram path {
    stroke-width: 3;
    stroke: black;
    fill-opacity: 0;
}
svg.railroad-diagram text {
    font: bold 14px monospace;
    text-anchor: middle;
}
svg.railroad-diagram text.label {
    text-anchor: start;
}
svg.railroad-diagram text.comment {
    font: italic 12px monospace;
}
svg.railroad-diagram rect {
    stroke-width: 3;
    stroke: black;
    fill: #9db0e5;
}
svg.railroad-diagram rect[rx~="10"] {
    fill: #c7a6d8;
}</style>
<g transform="translate(.5 .5)">
<path d="M 20 21 v 20 m 10 -20 v 20 m -10 -10 h 20.5">
</path>
<g>
<path d="M40 31h0">
</path>
<path d="M224 31h0">
</path>
<path d="M40 31h20">
</path>
<g>
<path d="M60 31h0">
</path>
<path d="M204 31h0">
</path>
<path d="M60 31h10">
</path>
<g>
<path d="M70 31h0">
</path>
<path d="M122 31h0">
</path>
<rect x="70" y="20" width="52" height="22">
</rect>
<text x="96" y="35">
node</text>
</g>
<path d="M122 31h10">
</path>
<path d="M132 31h10">
</path>
<g>
<path d="M142 31h0">
</path>
<path d="M194 31h0">
</path>
<rect x="142" y="20" width="52" height="22">
</rect>
<text x="168" y="35">
edge</text>
</g>
<path d="M194 31h10">
</path>
</g>
<path d="M204 31h20">
</path>
</g>
<path d="M 224 31 h 20 m -10 -10 v 20 m 10 -20 v 20">
</path>
</g>
</svg>
