<?xml version="1.0" encoding="UTF-8"?>
<!-- Generator: visioncortex VTracer -->
<svg id="svg" version="1.1" xmlns="http://www.w3.org/2000/svg" style="display: block;" viewBox="0 0 290 289"><path d="M0 0 C2.97 0 5.94 0 9 0 C13.2109375 2.74609375 13.2109375 2.74609375 17.375 6.4375 C18.8496875 7.71882812 20.324375 9.00015625 21.84375 10.3203125 C23.2153125 11.53460938 24.586875 12.74890625 26 14 C29.66492894 17.00212264 33.33134079 20.00243699 37 23 C38.711875 24.4025 40.42375 25.805 42.1875 27.25 C46.78562323 31.00760608 51.39035337 34.75656647 56 38.5 C62.34491155 43.65261939 68.67738502 48.82002628 75 54 C77.7225 56.2275 77.7225 56.2275 80.5 58.5 C84.0634284 61.41553233 87.62598419 64.33213163 91.1875 67.25 C95.78562323 71.00760608 100.39035337 74.75656647 105 78.5 C111.34491155 83.65261939 117.67738502 88.82002628 124 94 C125.876875 95.52625 127.75375 97.0525 129.6875 98.625 C131.440625 100.06875 133.19375 101.5125 135 103 C136.546875 104.2375 138.09375 105.475 139.6875 106.75 C140.780625 107.8225 141.87375 108.895 143 110 C143 111.65 143 113.3 143 115 C137.41761256 119.83806911 131.80428685 124.44485579 126 129 C123.07923756 131.36996122 120.16230196 133.74464987 117.25 136.125 C113.1750869 139.42708476 109.09555682 142.72355454 105 146 C105.66 147.32 106.32 148.64 107 150 C111.62984905 153.71304726 116.30301734 157.37224917 121 161 C125.33482774 164.66489982 129.66834369 168.33135231 134 172 C136.64 173.98 139.28 175.96 142 178 C142.33 179.98 142.66 181.96 143 184 C136.4838538 190.60077148 129.27956515 196.26734244 122 202 C118.33134079 204.99756301 114.66492894 207.99787736 111 211 C108.3341572 213.16768026 105.66743769 215.33428263 103 217.5 C96.65508845 222.65261939 90.32261498 227.82002628 84 233 C67.5 246.5 67.5 246.5 51 260 C49.14375 261.52625 47.2875 263.0525 45.375 264.625 C43.60125 266.06875 41.8275 267.5125 40 269 C37.64875 271.0109375 37.64875 271.0109375 35.25 273.0625 C33.8475 274.031875 32.445 275.00125 31 276 C28.69 276 26.38 276 24 276 C23.67 275.67 23.34 275.34 23 275 C22.65409291 261.16634818 22.60011583 247.33141774 22.54003906 233.49389648 C22.51341688 228.80206096 22.47247719 224.11028414 22.41699219 219.41870117 C22.33808059 212.67342319 22.30475884 205.929265 22.28125 199.18359375 C22.24825806 197.08439072 22.21526611 194.98518768 22.18127441 192.82237244 C22.18855342 187.54119723 22.5685527 182.26352712 23 177 C27.61356355 170.83265895 32.88098224 166.6265744 39 162 C41.6954834 159.80141828 44.38208201 157.59192394 47.0625 155.375 C56.9619982 147.1979101 66.89855575 139.06824035 76.9375 131.0625 C78.608125 129.721875 80.27875 128.38125 82 127 C83.47082031 125.85917969 84.94164062 124.71835938 86.45703125 123.54296875 C88.03871094 122.29128906 89.62039062 121.03960937 91.25 119.75 C92.76078125 118.56921875 94.2715625 117.3884375 95.828125 116.171875 C96.87484375 115.12515625 97.9215625 114.0784375 99 113 C98.34 111.68 97.68 110.36 97 109 C93.39267586 105.92889971 89.71003212 102.94620198 86 100 C83.33088083 97.8363553 80.66433663 95.66953126 78 93.5 C76.63488281 92.39140625 75.26976562 91.2828125 73.86328125 90.140625 C67.16485863 84.69519347 60.4901582 79.2208525 53.8125 73.75 C49.21437677 69.99239392 44.60964663 66.24343353 40 62.5 C31.69173703 55.7529687 23.38802487 49.00285957 15.1875 42.125 C10.11290084 37.79814033 10.11290084 37.79814033 4 35 C-2.62958305 38.97774983 -8.12145277 43.98435878 -14 49 C-17.32540574 51.67654608 -20.65832363 54.34379571 -24 57 C-27.66865921 59.99756301 -31.33507106 62.99787736 -35 66 C-37.6658428 68.16768026 -40.33256231 70.33428263 -43 72.5 C-49.34491155 77.65261939 -55.67738502 82.82002628 -62 88 C-72.69064544 96.75860108 -72.69064544 96.75860108 -77.25 100.31640625 C-81.2367131 103.45734659 -85.12553163 106.72160369 -89 110 C-89 111.32 -89 112.64 -89 114 C-81.25176163 120.98860716 -73.17425199 127.52041001 -65 134 C-55.97460327 141.30228177 -46.98525599 148.64842692 -38 156 C-35.22972146 158.25068305 -32.45885284 160.50063991 -29.6875 162.75 C-25.10503732 166.47557942 -20.53698937 170.21917553 -16 174 C-13.59551304 183.61794783 -13.73308615 192.74325896 -13.76953125 202.58203125 C-13.76998947 204.58343674 -13.77044769 206.58484222 -13.7709198 208.64689636 C-13.77393761 212.87064203 -13.78180975 217.09438663 -13.79418945 221.31811523 C-13.81247946 227.80521557 -13.81469884 234.29217342 -13.81445312 240.77929688 C-13.81936715 244.88020958 -13.82519497 248.9811213 -13.83203125 253.08203125 C-13.83314407 255.03196487 -13.8342569 256.9818985 -13.83540344 258.99092102 C-13.8519939 263.66090685 -13.920827 268.33065588 -14 273 C-14.33 273.99 -14.66 274.98 -15 276 C-17.31 276 -19.62 276 -22 276 C-25.875 273.375 -25.875 273.375 -31 269 C-33.7890125 266.70510389 -36.58094159 264.41374998 -39.375 262.125 C-42.25021367 259.75025868 -45.12523182 257.3752806 -48 255 C-55.69313661 248.68989919 -63.41287777 242.41305488 -71.13671875 236.140625 C-76.1006065 232.10527035 -81.05149435 228.0541974 -86 224 C-87.815 222.515 -89.63 221.03 -91.5 219.5 C-108 206 -108 206 -113.25 201.6875 C-116.46713575 199.06483499 -119.70794088 196.46852935 -123.02734375 193.9765625 C-126.78863119 191.11586501 -130.40511604 188.06719458 -134 185 C-134 183.02 -134 181.04 -134 179 C-128.125 173.625 -128.125 173.625 -121 168 C-118.586875 166.0509375 -118.586875 166.0509375 -116.125 164.0625 C-113.10448339 161.66818805 -110.07168889 159.28899189 -107.01171875 156.9453125 C-103.27526704 154.04652112 -99.63023755 151.03074878 -96 148 C-96.33 147.01 -96.66 146.02 -97 145 C-101.63867291 141.29798219 -106.30902003 137.63550948 -111 134 C-114.01090368 131.34565071 -117.01215208 128.68027534 -120 126 C-124.61449065 122.25411936 -129.24543504 118.56592372 -134 115 C-134 113.02 -134 111.04 -134 109 C-128.125 103.625 -128.125 103.625 -121 98 C-119.4325 96.741875 -117.865 95.48375 -116.25 94.1875 C-114.5175 92.805625 -112.785 91.42375 -111 90 C-108.24762641 87.73204416 -105.49786641 85.46091466 -102.75 83.1875 C-97.46461411 78.82333454 -92.14438556 74.54430246 -86.75 70.3125 C-82.27038539 66.78687739 -77.85176799 63.18226522 -73.5 59.5 C-66.79341714 53.82519912 -59.90756463 48.42737221 -53 43 C-50.855 41.185 -48.71 39.37 -46.5 37.5 C-39.79341714 31.82519912 -32.90756463 26.42737221 -26 21 C-23.834375 19.164375 -21.66875 17.32875 -19.4375 15.4375 C-6.34023854 4.3747646 -6.34023854 4.3747646 0 0 Z M-73 166 C-75.75154909 167.99797688 -78.42955016 170.09813821 -81.0625 172.25 C-83.21458984 173.99023438 -83.21458984 173.99023438 -85.41015625 175.765625 C-86.59480469 176.83296875 -87.77945313 177.9003125 -89 179 C-89.66 180.32 -90.32 181.64 -91 183 C-86.47670088 187.16143519 -81.78440908 191.14160558 -77 195 C-74.4321875 197.0728125 -74.4321875 197.0728125 -71.8125 199.1875 C-70.224375 200.445625 -68.63625 201.70375 -67 203 C-61.28833687 207.66124232 -55.60592696 212.33660405 -50 217.125 C-48.35 218.40375 -46.7 219.6825 -45 221 C-44.01 220.67 -43.02 220.34 -42 220 C-41.64529974 215.09331307 -41.51859908 210.16945556 -41.5 205.25 C-41.4690625 202.53265625 -41.438125 199.8153125 -41.40625 197.015625 C-41.70015625 193.54289062 -41.70015625 193.54289062 -42 190 C-50.67775186 181.32224814 -60.21591617 173.40794919 -70 166 C-70.99 166 -71.98 166 -73 166 Z M79 166 C74.6207748 169.61173212 70.2934669 173.28673133 66 177 C64.185 178.44375 62.37 179.8875 60.5 181.375 C55.76322801 185.05831665 55.76322801 185.05831665 51 190 C50.23909682 197.50593578 50.23909682 197.50593578 50.4375 205.875 C50.43621094 208.71867187 50.43492187 211.56234375 50.43359375 214.4921875 C50.62050781 216.63976562 50.80742187 218.78734375 51 221 C52.98 220.505 52.98 220.505 55 220 C57.76360991 217.88276455 60.46382029 215.68212653 63.125 213.4375 C64.64609375 212.16390625 66.1671875 210.8903125 67.734375 209.578125 C69.14203125 208.39734375 70.5496875 207.2165625 72 206 C75.32955285 203.32861458 78.66227077 200.66116249 82 198 C88.06618266 193.06706025 94.06295986 188.08889155 100 183 C99.34 181.68 98.68 180.36 98 179 C95.41966737 176.67517365 92.76319253 174.43384841 90.0625 172.25 C88.63035156 171.07953125 87.19820312 169.9090625 85.72265625 168.703125 C83.87994141 167.36507812 83.87994141 167.36507812 82 166 C81.01 166 80.02 166 79 166 Z " transform="translate(139,4)" style="fill: #6DC8BC;"/><path d="M0 0 C2.97 0 5.94 0 9 0 C14.5559855 4.20086708 19.75645698 8.44731241 25 13 C27.35125 14.835625 29.7025 16.67125 32.125 18.5625 C39.24871688 24.19671244 46.12832594 30.06233989 53 36 C54.65 37.32 56.3 38.64 58 40 C57.67 41.98 57.34 43.96 57 46 C46.04819277 55.97590361 46.04819277 55.97590361 40 59 C38.02 58.67 36.04 58.34 34 58 C30.23945887 55.1185464 26.59445714 52.08615007 23 49 C20.00837177 46.46923703 17.0079733 43.94881386 14 41.4375 C12.55625 40.21933594 11.1125 39.00117187 9.625 37.74609375 C8.42875 36.83988281 7.2325 35.93367188 6 35 C5.01 35 4.02 35 3 35 C-1.89496177 38.70830437 -6.57857714 42.64906969 -11.296875 46.578125 C-12.80765625 47.83109375 -14.3184375 49.0840625 -15.875 50.375 C-17.31617187 51.57898438 -18.75734375 52.78296875 -20.2421875 54.0234375 C-24 57 -24 57 -28 59 C-29.65 58.67 -31.3 58.34 -33 58 C-36.39944598 55.41814229 -39.73060274 52.74467918 -43 50 C-44.98 48.35 -46.96 46.7 -49 45 C-49 43.35 -49 41.7 -49 40 C-41.61087932 32.61087932 -33.21146288 26.44175105 -25 20 C-22.628125 17.958125 -20.25625 15.91625 -17.8125 13.8125 C-6.11067772 3.8283764 -6.11067772 3.8283764 0 0 Z " transform="translate(139,74)" style="fill: #6EC8BD;"/></svg>