<svg xmlns="http://www.w3.org/2000/svg" xmlns:xlink="http://www.w3.org/1999/xlink" class="railroad-diagram" width="1357" height="91" viewBox="0 0 1357 91">
<style type="text/css">svg.railroad-diagram {
    background-color: hsl(30,20%,95%);
}
svg.railroad-diagram path {
    stroke-width: 3;
    stroke: black;
    fill-opacity: 0;
}
svg.railroad-diagram text {
    font: bold 14px monospace;
    text-anchor: middle;
}
svg.railroad-diagram text.label {
    text-anchor: start;
}
svg.railroad-diagram text.comment {
    font: italic 12px monospace;
}
svg.railroad-diagram rect {
    stroke-width: 3;
    stroke: black;
    fill: #9db0e5;
}
svg.railroad-diagram rect[rx~="10"] {
    fill: #c7a6d8;
}</style>
<g transform="translate(.5 .5)">
<path d="M 20 41 v 20 m 10 -20 v 20 m -10 -10 h 20.5">
</path>
<g>
<path d="M40 51h0">
</path>
<path d="M1316 51h0">
</path>
<path d="M40 51h20">
</path>
<g>
<path d="M60 51h0">
</path>
<path d="M1296 51h0">
</path>
<path d="M60 51h10">
</path>
<g>
<path d="M70 51h0">
</path>
<path d="M138 51h0">
</path>
<rect x="70" y="40" width="68" height="22" rx="10" ry="10">
</rect>
<text x="104" y="55">
OTHERS</text>
</g>
<path d="M138 51h10">
</path>
<path d="M148 51h10">
</path>
<g>
<path d="M158 51h0">
</path>
<path d="M194 51h0">
</path>
<rect x="158" y="40" width="36" height="22" rx="10" ry="10">
</rect>
<text x="176" y="55">
EQ</text>
</g>
<path d="M194 51h10">
</path>
<path d="M204 51h10">
</path>
<g>
<path d="M214 51h0">
</path>
<path d="M266 51h0">
</path>
<rect x="214" y="40" width="52" height="22">
</rect>
<text x="240" y="55">
node</text>
</g>
<path d="M266 51h10">
</path>
<g>
<path d="M276 51h0">
</path>
<path d="M416 51h0">
</path>
<path d="M276 51a10 10 0 0 0 10 -10v0a10 10 0 0 1 10 -10">
</path>
<g>
<path d="M296 31h100">
</path>
</g>
<path d="M396 31a10 10 0 0 1 10 10v0a10 10 0 0 0 10 10">
</path>
<path d="M276 51h20">
</path>
<g>
<path d="M296 51h0">
</path>
<path d="M396 51h0">
</path>
<rect x="296" y="40" width="100" height="22">
</rect>
<text x="346" y="55">
many_edges</text>
</g>
<path d="M396 51h20">
</path>
</g>
<g>
<path d="M416 51h0">
</path>
<path d="M592 51h0">
</path>
<path d="M416 51a10 10 0 0 0 10 -10v0a10 10 0 0 1 10 -10">
</path>
<g>
<path d="M436 31h136">
</path>
</g>
<path d="M572 31a10 10 0 0 1 10 10v0a10 10 0 0 0 10 10">
</path>
<path d="M416 51h20">
</path>
<g>
<path d="M436 51h0">
</path>
<path d="M572 51h0">
</path>
<path d="M436 51h10">
</path>
<g>
<path d="M446 51h0">
</path>
<path d="M562 51h0">
</path>
<rect x="446" y="40" width="116" height="22">
</rect>
<text x="504" y="55">
edge_joining</text>
</g>
<path d="M562 51h10">
</path>
<path d="M446 51a10 10 0 0 0 -10 10v0a10 10 0 0 0 10 10">
</path>
<g>
<path d="M446 71h116">
</path>
</g>
<path d="M562 71a10 10 0 0 0 10 -10v0a10 10 0 0 0 -10 -10">
</path>
</g>
<path d="M572 51h20">
</path>
</g>
<g>
<path d="M592 51h0">
</path>
<path d="M864 51h0">
</path>
<path d="M592 51a10 10 0 0 0 10 -10v0a10 10 0 0 1 10 -10">
</path>
<g>
<path d="M612 31h232">
</path>
</g>
<path d="M844 31a10 10 0 0 1 10 10v0a10 10 0 0 0 10 10">
</path>
<path d="M592 51h20">
</path>
<g>
<path d="M612 51h0">
</path>
<path d="M844 51h0">
</path>
<path d="M612 51h20">
</path>
<g>
<path d="M632 51h0">
</path>
<path d="M824 51h0">
</path>
<path d="M632 51h10">
</path>
<g>
<path d="M642 51h0">
</path>
<path d="M702 51h0">
</path>
<rect x="642" y="40" width="60" height="22" rx="10" ry="10">
</rect>
<text x="672" y="55">
WHERE</text>
</g>
<path d="M702 51h10">
</path>
<path d="M712 51h10">
</path>
<g>
<path d="M722 51h0">
</path>
<path d="M814 51h0">
</path>
<rect x="722" y="40" width="92" height="22">
</rect>
<text x="768" y="55">
test_expr</text>
</g>
<path d="M814 51h10">
</path>
</g>
<path d="M824 51h20">
</path>
</g>
<path d="M844 51h20">
</path>
</g>
<g>
<path d="M864 51h0">
</path>
<path d="M1296 51h0">
</path>
<path d="M864 51a10 10 0 0 0 10 -10v-9a10 10 0 0 1 10 -10">
</path>
<g>
<path d="M884 22h392">
</path>
</g>
<path d="M1276 22a10 10 0 0 1 10 10v9a10 10 0 0 0 10 10">
</path>
<path d="M864 51h20">
</path>
<g>
<path d="M884 51h0">
</path>
<path d="M1276 51h0">
</path>
<path d="M884 51h20">
</path>
<g>
<path d="M904 51h0">
</path>
<path d="M1256 51h0">
</path>
<path d="M904 51h10">
</path>
<g>
<path d="M914 51h0">
</path>
<path d="M1014 51h0">
</path>
<rect x="914" y="40" width="100" height="22" rx="10" ry="10">
</rect>
<text x="964" y="55">
REWRITE_TO</text>
</g>
<path d="M1014 51h10">
</path>
<g>
<path d="M1024 51h0">
</path>
<path d="M1184 51h0">
</path>
<path d="M1024 51a10 10 0 0 0 10 -10v0a10 10 0 0 1 10 -10">
</path>
<g>
<path d="M1044 31h120">
</path>
</g>
<path d="M1164 31a10 10 0 0 1 10 10v0a10 10 0 0 0 10 10">
</path>
<path d="M1024 51h20">
</path>
<g>
<path d="M1044 51h0">
</path>
<path d="M1164 51h0">
</path>
<path d="M1044 51h10">
</path>
<g>
<path d="M1054 51h0">
</path>
<path d="M1154 51h0">
</path>
<rect x="1054" y="40" width="100" height="22">
</rect>
<text x="1104" y="55">
rewrite_to</text>
</g>
<path d="M1154 51h10">
</path>
<path d="M1054 51a10 10 0 0 0 -10 10v0a10 10 0 0 0 10 10">
</path>
<g>
<path d="M1054 71h100">
</path>
</g>
<path d="M1154 71a10 10 0 0 0 10 -10v0a10 10 0 0 0 -10 -10">
</path>
</g>
<path d="M1164 51h20">
</path>
</g>
<path d="M1184 51h10">
</path>
<g>
<path d="M1194 51h0">
</path>
<path d="M1246 51h0">
</path>
<rect x="1194" y="40" width="52" height="22">
</rect>
<text x="1220" y="55">
node</text>
</g>
<path d="M1246 51h10">
</path>
</g>
<path d="M1256 51h20">
</path>
</g>
<path d="M1276 51h20">
</path>
</g>
</g>
<path d="M1296 51h20">
</path>
</g>
<path d="M 1316 51 h 20 m -10 -10 v 20 m 10 -20 v 20">
</path>
</g>
</svg>
