<svg xmlns="http://www.w3.org/2000/svg" xmlns:xlink="http://www.w3.org/1999/xlink" class="railroad-diagram" width="305" height="482" viewBox="0 0 305 482">
<style type="text/css">svg.railroad-diagram {
    background-color: hsl(30,20%,95%);
}
svg.railroad-diagram path {
    stroke-width: 3;
    stroke: black;
    fill-opacity: 0;
}
svg.railroad-diagram text {
    font: bold 14px monospace;
    text-anchor: middle;
}
svg.railroad-diagram text.label {
    text-anchor: start;
}
svg.railroad-diagram text.comment {
    font: italic 12px monospace;
}
svg.railroad-diagram rect {
    stroke-width: 3;
    stroke: black;
    fill: #9db0e5;
}
svg.railroad-diagram rect[rx~="10"] {
    fill: #c7a6d8;
}</style>
<g transform="translate(.5 .5)">
<path d="M 20 21 v 20 m 10 -20 v 20 m -10 -10 h 20.5">
</path>
<g>
<path d="M40 31h0">
</path>
<path d="M264 31h0">
</path>
<path d="M40 31h20">
</path>
<g>
<path d="M60 31h44">
</path>
<path d="M200 31h44">
</path>
<path d="M104 31h10">
</path>
<g>
<path d="M114 31h0">
</path>
<path d="M190 31h0">
</path>
<rect x="114" y="20" width="76" height="22">
</rect>
<text x="152" y="35">
operand</text>
</g>
<path d="M190 31h10">
</path>
</g>
<path d="M244 31h20">
</path>
<path d="M40 31a10 10 0 0 1 10 10v10a10 10 0 0 0 10 10">
</path>
<g>
<path d="M60 61h12">
</path>
<path d="M232 61h12">
</path>
<path d="M72 61h10">
</path>
<g>
<path d="M82 61h0">
</path>
<path d="M126 61h0">
</path>
<rect x="82" y="50" width="44" height="22" rx="10" ry="10">
</rect>
<text x="104" y="65">
NOT</text>
</g>
<path d="M126 61h10">
</path>
<path d="M136 61h10">
</path>
<g>
<path d="M146 61h0">
</path>
<path d="M222 61h0">
</path>
<rect x="146" y="50" width="76" height="22">
</rect>
<text x="184" y="65">
operand</text>
</g>
<path d="M222 61h10">
</path>
</g>
<path d="M244 61a10 10 0 0 0 10 -10v-10a10 10 0 0 1 10 -10">
</path>
<path d="M40 31a10 10 0 0 1 10 10v40a10 10 0 0 0 10 10">
</path>
<g>
<path d="M60 91h4">
</path>
<path d="M240 91h4">
</path>
<path d="M64 91h10">
</path>
<g>
<path d="M74 91h0">
</path>
<path d="M134 91h0">
</path>
<rect x="74" y="80" width="60" height="22" rx="10" ry="10">
</rect>
<text x="104" y="95">
LISTT</text>
</g>
<path d="M134 91h10">
</path>
<path d="M144 91h10">
</path>
<g>
<path d="M154 91h0">
</path>
<path d="M230 91h0">
</path>
<rect x="154" y="80" width="76" height="22">
</rect>
<text x="192" y="95">
operand</text>
</g>
<path d="M230 91h10">
</path>
</g>
<path d="M244 91a10 10 0 0 0 10 -10v-40a10 10 0 0 1 10 -10">
</path>
<path d="M40 31a10 10 0 0 1 10 10v70a10 10 0 0 0 10 10">
</path>
<g>
<path d="M60 121h12">
</path>
<path d="M232 121h12">
</path>
<path d="M72 121h10">
</path>
<g>
<path d="M82 121h0">
</path>
<path d="M126 121h0">
</path>
<rect x="82" y="110" width="44" height="22" rx="10" ry="10">
</rect>
<text x="104" y="125">
SIN</text>
</g>
<path d="M126 121h10">
</path>
<path d="M136 121h10">
</path>
<g>
<path d="M146 121h0">
</path>
<path d="M222 121h0">
</path>
<rect x="146" y="110" width="76" height="22">
</rect>
<text x="184" y="125">
operand</text>
</g>
<path d="M222 121h10">
</path>
</g>
<path d="M244 121a10 10 0 0 0 10 -10v-70a10 10 0 0 1 10 -10">
</path>
<path d="M40 31a10 10 0 0 1 10 10v100a10 10 0 0 0 10 10">
</path>
<g>
<path d="M60 151h12">
</path>
<path d="M232 151h12">
</path>
<path d="M72 151h10">
</path>
<g>
<path d="M82 151h0">
</path>
<path d="M126 151h0">
</path>
<rect x="82" y="140" width="44" height="22" rx="10" ry="10">
</rect>
<text x="104" y="155">
COS</text>
</g>
<path d="M126 151h10">
</path>
<path d="M136 151h10">
</path>
<g>
<path d="M146 151h0">
</path>
<path d="M222 151h0">
</path>
<rect x="146" y="140" width="76" height="22">
</rect>
<text x="184" y="155">
operand</text>
</g>
<path d="M222 151h10">
</path>
</g>
<path d="M244 151a10 10 0 0 0 10 -10v-100a10 10 0 0 1 10 -10">
</path>
<path d="M40 31a10 10 0 0 1 10 10v130a10 10 0 0 0 10 10">
</path>
<g>
<path d="M60 181h12">
</path>
<path d="M232 181h12">
</path>
<path d="M72 181h10">
</path>
<g>
<path d="M82 181h0">
</path>
<path d="M126 181h0">
</path>
<rect x="82" y="170" width="44" height="22" rx="10" ry="10">
</rect>
<text x="104" y="185">
TAN</text>
</g>
<path d="M126 181h10">
</path>
<path d="M136 181h10">
</path>
<g>
<path d="M146 181h0">
</path>
<path d="M222 181h0">
</path>
<rect x="146" y="170" width="76" height="22">
</rect>
<text x="184" y="185">
operand</text>
</g>
<path d="M222 181h10">
</path>
</g>
<path d="M244 181a10 10 0 0 0 10 -10v-130a10 10 0 0 1 10 -10">
</path>
<path d="M40 31a10 10 0 0 1 10 10v160a10 10 0 0 0 10 10">
</path>
<g>
<path d="M60 211h12">
</path>
<path d="M232 211h12">
</path>
<path d="M72 211h10">
</path>
<g>
<path d="M82 211h0">
</path>
<path d="M126 211h0">
</path>
<rect x="82" y="200" width="44" height="22" rx="10" ry="10">
</rect>
<text x="104" y="215">
ELL</text>
</g>
<path d="M126 211h10">
</path>
<path d="M136 211h10">
</path>
<g>
<path d="M146 211h0">
</path>
<path d="M222 211h0">
</path>
<rect x="146" y="200" width="76" height="22">
</rect>
<text x="184" y="215">
operand</text>
</g>
<path d="M222 211h10">
</path>
</g>
<path d="M244 211a10 10 0 0 0 10 -10v-160a10 10 0 0 1 10 -10">
</path>
<path d="M40 31a10 10 0 0 1 10 10v190a10 10 0 0 0 10 10">
</path>
<g>
<path d="M60 241h16">
</path>
<path d="M228 241h16">
</path>
<path d="M76 241h10">
</path>
<g>
<path d="M86 241h0">
</path>
<path d="M122 241h0">
</path>
<rect x="86" y="230" width="36" height="22" rx="10" ry="10">
</rect>
<text x="104" y="245">
XI</text>
</g>
<path d="M122 241h10">
</path>
<path d="M132 241h10">
</path>
<g>
<path d="M142 241h0">
</path>
<path d="M218 241h0">
</path>
<rect x="142" y="230" width="76" height="22">
</rect>
<text x="180" y="245">
operand</text>
</g>
<path d="M218 241h10">
</path>
</g>
<path d="M244 241a10 10 0 0 0 10 -10v-190a10 10 0 0 1 10 -10">
</path>
<path d="M40 31a10 10 0 0 1 10 10v220a10 10 0 0 0 10 10">
</path>
<g>
<path d="M60 271h12">
</path>
<path d="M232 271h12">
</path>
<path d="M72 271h10">
</path>
<g>
<path d="M82 271h0">
</path>
<path d="M126 271h0">
</path>
<rect x="82" y="260" width="44" height="22" rx="10" ry="10">
</rect>
<text x="104" y="275">
INJ</text>
</g>
<path d="M126 271h10">
</path>
<path d="M136 271h10">
</path>
<g>
<path d="M146 271h0">
</path>
<path d="M222 271h0">
</path>
<rect x="146" y="260" width="76" height="22">
</rect>
<text x="184" y="275">
operand</text>
</g>
<path d="M222 271h10">
</path>
</g>
<path d="M244 271a10 10 0 0 0 10 -10v-220a10 10 0 0 1 10 -10">
</path>
<path d="M40 31a10 10 0 0 1 10 10v250a10 10 0 0 0 10 10">
</path>
<g>
<path d="M60 301h12">
</path>
<path d="M232 301h12">
</path>
<path d="M72 301h10">
</path>
<g>
<path d="M82 301h0">
</path>
<path d="M126 301h0">
</path>
<rect x="82" y="290" width="44" height="22" rx="10" ry="10">
</rect>
<text x="104" y="305">
OBJ</text>
</g>
<path d="M126 301h10">
</path>
<path d="M136 301h10">
</path>
<g>
<path d="M146 301h0">
</path>
<path d="M222 301h0">
</path>
<rect x="146" y="290" width="76" height="22">
</rect>
<text x="184" y="305">
operand</text>
</g>
<path d="M222 301h10">
</path>
</g>
<path d="M244 301a10 10 0 0 0 10 -10v-250a10 10 0 0 1 10 -10">
</path>
<path d="M40 31a10 10 0 0 1 10 10v280a10 10 0 0 0 10 10">
</path>
<g>
<path d="M60 331h8">
</path>
<path d="M236 331h8">
</path>
<path d="M68 331h10">
</path>
<g>
<path d="M78 331h0">
</path>
<path d="M130 331h0">
</path>
<rect x="78" y="320" width="52" height="22" rx="10" ry="10">
</rect>
<text x="104" y="335">
FLAT</text>
</g>
<path d="M130 331h10">
</path>
<path d="M140 331h10">
</path>
<g>
<path d="M150 331h0">
</path>
<path d="M226 331h0">
</path>
<rect x="150" y="320" width="76" height="22">
</rect>
<text x="188" y="335">
operand</text>
</g>
<path d="M226 331h10">
</path>
</g>
<path d="M244 331a10 10 0 0 0 10 -10v-280a10 10 0 0 1 10 -10">
</path>
<path d="M40 31a10 10 0 0 1 10 10v310a10 10 0 0 0 10 10">
</path>
<g>
<path d="M60 361h4">
</path>
<path d="M240 361h4">
</path>
<path d="M64 361h10">
</path>
<g>
<path d="M74 361h0">
</path>
<path d="M134 361h0">
</path>
<rect x="74" y="350" width="60" height="22" rx="10" ry="10">
</rect>
<text x="104" y="365">
SELFX</text>
</g>
<path d="M134 361h10">
</path>
<path d="M144 361h10">
</path>
<g>
<path d="M154 361h0">
</path>
<path d="M230 361h0">
</path>
<rect x="154" y="350" width="76" height="22">
</rect>
<text x="192" y="365">
operand</text>
</g>
<path d="M230 361h10">
</path>
</g>
<path d="M244 361a10 10 0 0 0 10 -10v-310a10 10 0 0 1 10 -10">
</path>
<path d="M40 31a10 10 0 0 1 10 10v340a10 10 0 0 0 10 10">
</path>
<g>
<path d="M60 391h0">
</path>
<path d="M244 391h0">
</path>
<path d="M60 391h10">
</path>
<g>
<path d="M70 391h0">
</path>
<path d="M138 391h0">
</path>
<rect x="70" y="380" width="68" height="22" rx="10" ry="10">
</rect>
<text x="104" y="395">
VARPHI</text>
</g>
<path d="M138 391h10">
</path>
<path d="M148 391h10">
</path>
<g>
<path d="M158 391h0">
</path>
<path d="M234 391h0">
</path>
<rect x="158" y="380" width="76" height="22">
</rect>
<text x="196" y="395">
operand</text>
</g>
<path d="M234 391h10">
</path>
</g>
<path d="M244 391a10 10 0 0 0 10 -10v-340a10 10 0 0 1 10 -10">
</path>
<path d="M40 31a10 10 0 0 1 10 10v370a10 10 0 0 0 10 10">
</path>
<g>
<path d="M60 421h0">
</path>
<path d="M244 421h0">
</path>
<path d="M60 421h10">
</path>
<g>
<path d="M70 421h0">
</path>
<path d="M138 421h0">
</path>
<rect x="70" y="410" width="68" height="22" rx="10" ry="10">
</rect>
<text x="104" y="425">
TYPEOF</text>
</g>
<path d="M138 421h10">
</path>
<path d="M148 421h10">
</path>
<g>
<path d="M158 421h0">
</path>
<path d="M234 421h0">
</path>
<rect x="158" y="410" width="76" height="22">
</rect>
<text x="196" y="425">
operand</text>
</g>
<path d="M234 421h10">
</path>
</g>
<path d="M244 421a10 10 0 0 0 10 -10v-370a10 10 0 0 1 10 -10">
</path>
<path d="M40 31a10 10 0 0 1 10 10v400a10 10 0 0 0 10 10">
</path>
<g>
<path d="M60 451h0">
</path>
<path d="M244 451h0">
</path>
<path d="M60 451h10">
</path>
<g>
<path d="M70 451h0">
</path>
<path d="M138 451h0">
</path>
<rect x="70" y="440" width="68" height="22" rx="10" ry="10">
</rect>
<text x="104" y="455">
ASSERT</text>
</g>
<path d="M138 451h10">
</path>
<path d="M148 451h10">
</path>
<g>
<path d="M158 451h0">
</path>
<path d="M234 451h0">
</path>
<rect x="158" y="440" width="76" height="22">
</rect>
<text x="196" y="455">
operand</text>
</g>
<path d="M234 451h10">
</path>
</g>
<path d="M244 451a10 10 0 0 0 10 -10v-400a10 10 0 0 1 10 -10">
</path>
</g>
<path d="M 264 31 h 20 m -10 -10 v 20 m 10 -20 v 20">
</path>
</g>
</svg>
