<svg xmlns="http://www.w3.org/2000/svg" xmlns:xlink="http://www.w3.org/1999/xlink" class="railroad-diagram" width="689" height="72" viewBox="0 0 689 72">
<style type="text/css">svg.railroad-diagram {
    background-color: hsl(30,20%,95%);
}
svg.railroad-diagram path {
    stroke-width: 3;
    stroke: black;
    fill-opacity: 0;
}
svg.railroad-diagram text {
    font: bold 14px monospace;
    text-anchor: middle;
}
svg.railroad-diagram text.label {
    text-anchor: start;
}
svg.railroad-diagram text.comment {
    font: italic 12px monospace;
}
svg.railroad-diagram rect {
    stroke-width: 3;
    stroke: black;
    fill: #9db0e5;
}
svg.railroad-diagram rect[rx~="10"] {
    fill: #c7a6d8;
}</style>
<g transform="translate(.5 .5)">
<path d="M 20 31 v 20 m 10 -20 v 20 m -10 -10 h 20.5">
</path>
<g>
<path d="M40 41h0">
</path>
<path d="M648 41h0">
</path>
<path d="M40 41h20">
</path>
<g>
<path d="M60 41h0">
</path>
<path d="M628 41h0">
</path>
<path d="M60 41h10">
</path>
<g>
<path d="M70 41h0">
</path>
<path d="M194 41h0">
</path>
<rect x="70" y="30" width="124" height="22" rx="10" ry="10">
</rect>
<text x="132" y="45">
EscapedString</text>
</g>
<path d="M194 41h10">
</path>
<path d="M204 41h10">
</path>
<g>
<path d="M214 41h0">
</path>
<path d="M258 41h0">
</path>
<rect x="214" y="30" width="44" height="22" rx="10" ry="10">
</rect>
<text x="236" y="45">
'↦'</text>
</g>
<path d="M258 41h10">
</path>
<path d="M268 41h10">
</path>
<g>
<path d="M278 41h0">
</path>
<path d="M330 41h0">
</path>
<rect x="278" y="30" width="52" height="22">
</rect>
<text x="304" y="45">
expr</text>
</g>
<path d="M330 41h10">
</path>
<g>
<path d="M340 41h0">
</path>
<path d="M628 41h0">
</path>
<path d="M340 41a10 10 0 0 0 10 -10v0a10 10 0 0 1 10 -10">
</path>
<g>
<path d="M360 21h248">
</path>
</g>
<path d="M608 21a10 10 0 0 1 10 10v0a10 10 0 0 0 10 10">
</path>
<path d="M340 41h20">
</path>
<g>
<path d="M360 41h0">
</path>
<path d="M608 41h0">
</path>
<path d="M360 41h20">
</path>
<g>
<path d="M380 41h0">
</path>
<path d="M588 41h0">
</path>
<path d="M380 41h10">
</path>
<g>
<path d="M390 41h0">
</path>
<path d="M434 41h0">
</path>
<rect x="390" y="30" width="44" height="22" rx="10" ry="10">
</rect>
<text x="412" y="45">
','</text>
</g>
<path d="M434 41h10">
</path>
<path d="M444 41h10">
</path>
<g>
<path d="M454 41h0">
</path>
<path d="M578 41h0">
</path>
<rect x="454" y="30" width="124" height="22">
</rect>
<text x="516" y="45">
in_tuple_pair</text>
</g>
<path d="M578 41h10">
</path>
</g>
<path d="M588 41h20">
</path>
</g>
<path d="M608 41h20">
</path>
</g>
</g>
<path d="M628 41h20">
</path>
</g>
<path d="M 648 41 h 20 m -10 -10 v 20 m 10 -20 v 20">
</path>
</g>
</svg>
