<svg xmlns="http://www.w3.org/2000/svg" xmlns:xlink="http://www.w3.org/1999/xlink" class="railroad-diagram" width="393" height="662" viewBox="0 0 393 662">
<style type="text/css">svg.railroad-diagram {
    background-color: hsl(30,20%,95%);
}
svg.railroad-diagram path {
    stroke-width: 3;
    stroke: black;
    fill-opacity: 0;
}
svg.railroad-diagram text {
    font: bold 14px monospace;
    text-anchor: middle;
}
svg.railroad-diagram text.label {
    text-anchor: start;
}
svg.railroad-diagram text.comment {
    font: italic 12px monospace;
}
svg.railroad-diagram rect {
    stroke-width: 3;
    stroke: black;
    fill: #9db0e5;
}
svg.railroad-diagram rect[rx~="10"] {
    fill: #c7a6d8;
}</style>
<g transform="translate(.5 .5)">
<path d="M 20 21 v 20 m 10 -20 v 20 m -10 -10 h 20.5">
</path>
<g>
<path d="M40 31h0">
</path>
<path d="M352 31h0">
</path>
<path d="M40 31h20">
</path>
<g>
<path d="M60 31h92">
</path>
<path d="M240 31h92">
</path>
<path d="M152 31h10">
</path>
<g>
<path d="M162 31h0">
</path>
<path d="M230 31h0">
</path>
<rect x="162" y="20" width="68" height="22" rx="10" ry="10">
</rect>
<text x="196" y="35">
NUMBER</text>
</g>
<path d="M230 31h10">
</path>
</g>
<path d="M332 31h20">
</path>
<path d="M40 31a10 10 0 0 1 10 10v10a10 10 0 0 0 10 10">
</path>
<g>
<path d="M60 61h100">
</path>
<path d="M232 61h100">
</path>
<path d="M160 61h10">
</path>
<g>
<path d="M170 61h0">
</path>
<path d="M222 61h0">
</path>
<rect x="170" y="50" width="52" height="22" rx="10" ry="10">
</rect>
<text x="196" y="65">
BOOL</text>
</g>
<path d="M222 61h10">
</path>
</g>
<path d="M332 61a10 10 0 0 0 10 -10v-10a10 10 0 0 1 10 -10">
</path>
<path d="M40 31a10 10 0 0 1 10 10v40a10 10 0 0 0 10 10">
</path>
<g>
<path d="M60 91h64">
</path>
<path d="M268 91h64">
</path>
<path d="M124 91h10">
</path>
<g>
<path d="M134 91h0">
</path>
<path d="M258 91h0">
</path>
<rect x="134" y="80" width="124" height="22" rx="10" ry="10">
</rect>
<text x="196" y="95">
EscapedString</text>
</g>
<path d="M258 91h10">
</path>
</g>
<path d="M332 91a10 10 0 0 0 10 -10v-40a10 10 0 0 1 10 -10">
</path>
<path d="M40 31a10 10 0 0 1 10 10v70a10 10 0 0 0 10 10">
</path>
<g>
<path d="M60 121h104">
</path>
<path d="M228 121h104">
</path>
<path d="M164 121h10">
</path>
<g>
<path d="M174 121h0">
</path>
<path d="M218 121h0">
</path>
<rect x="174" y="110" width="44" height="22" rx="10" ry="10">
</rect>
<text x="196" y="125">
BOT</text>
</g>
<path d="M218 121h10">
</path>
</g>
<path d="M332 121a10 10 0 0 0 10 -10v-70a10 10 0 0 1 10 -10">
</path>
<path d="M40 31a10 10 0 0 1 10 10v100a10 10 0 0 0 10 10">
</path>
<g>
<path d="M60 151h88">
</path>
<path d="M244 151h88">
</path>
<path d="M148 151h10">
</path>
<g>
<path d="M158 151h0">
</path>
<path d="M234 151h0">
</path>
<rect x="158" y="140" width="76" height="22" rx="10" ry="10">
</rect>
<text x="196" y="155">
STRINGT</text>
</g>
<path d="M234 151h10">
</path>
</g>
<path d="M332 151a10 10 0 0 0 10 -10v-100a10 10 0 0 1 10 -10">
</path>
<path d="M40 31a10 10 0 0 1 10 10v130a10 10 0 0 0 10 10">
</path>
<g>
<path d="M60 181h96">
</path>
<path d="M236 181h96">
</path>
<path d="M156 181h10">
</path>
<g>
<path d="M166 181h0">
</path>
<path d="M226 181h0">
</path>
<rect x="166" y="170" width="60" height="22" rx="10" ry="10">
</rect>
<text x="196" y="185">
BOOLT</text>
</g>
<path d="M226 181h10">
</path>
</g>
<path d="M332 181a10 10 0 0 0 10 -10v-130a10 10 0 0 1 10 -10">
</path>
<path d="M40 31a10 10 0 0 1 10 10v160a10 10 0 0 0 10 10">
</path>
<g>
<path d="M60 211h100">
</path>
<path d="M232 211h100">
</path>
<path d="M160 211h10">
</path>
<g>
<path d="M170 211h0">
</path>
<path d="M222 211h0">
</path>
<rect x="170" y="200" width="52" height="22" rx="10" ry="10">
</rect>
<text x="196" y="215">
INTT</text>
</g>
<path d="M222 211h10">
</path>
</g>
<path d="M332 211a10 10 0 0 0 10 -10v-160a10 10 0 0 1 10 -10">
</path>
<path d="M40 31a10 10 0 0 1 10 10v190a10 10 0 0 0 10 10">
</path>
<g>
<path d="M60 241h88">
</path>
<path d="M244 241h88">
</path>
<path d="M148 241h10">
</path>
<g>
<path d="M158 241h0">
</path>
<path d="M234 241h0">
</path>
<rect x="158" y="230" width="76" height="22" rx="10" ry="10">
</rect>
<text x="196" y="245">
DOUBLET</text>
</g>
<path d="M234 241h10">
</path>
</g>
<path d="M332 241a10 10 0 0 0 10 -10v-190a10 10 0 0 1 10 -10">
</path>
<path d="M40 31a10 10 0 0 1 10 10v220a10 10 0 0 0 10 10">
</path>
<g>
<path d="M60 271h100">
</path>
<path d="M232 271h100">
</path>
<path d="M160 271h10">
</path>
<g>
<path d="M170 271h0">
</path>
<path d="M222 271h0">
</path>
<rect x="170" y="260" width="52" height="22" rx="10" ry="10">
</rect>
<text x="196" y="275">
ANYT</text>
</g>
<path d="M222 271h10">
</path>
</g>
<path d="M332 271a10 10 0 0 0 10 -10v-220a10 10 0 0 1 10 -10">
</path>
<path d="M40 31a10 10 0 0 1 10 10v250a10 10 0 0 0 10 10">
</path>
<g>
<path d="M60 301h100">
</path>
<path d="M232 301h100">
</path>
<path d="M160 301h10">
</path>
<g>
<path d="M170 301h0">
</path>
<path d="M222 301h0">
</path>
<rect x="170" y="290" width="52" height="22" rx="10" ry="10">
</rect>
<text x="196" y="305">
VOID</text>
</g>
<path d="M222 301h10">
</path>
</g>
<path d="M332 301a10 10 0 0 0 10 -10v-250a10 10 0 0 1 10 -10">
</path>
<path d="M40 31a10 10 0 0 1 10 10v280a10 10 0 0 0 10 10">
</path>
<g>
<path d="M60 331h36">
</path>
<path d="M296 331h36">
</path>
<path d="M96 331h10">
</path>
<g>
<path d="M106 331h0">
</path>
<path d="M150 331h0">
</path>
<rect x="106" y="320" width="44" height="22" rx="10" ry="10">
</rect>
<text x="128" y="335">
'('</text>
</g>
<path d="M150 331h10">
</path>
<path d="M160 331h10">
</path>
<g>
<path d="M170 331h0">
</path>
<path d="M222 331h0">
</path>
<rect x="170" y="320" width="52" height="22">
</rect>
<text x="196" y="335">
expr</text>
</g>
<path d="M222 331h10">
</path>
<path d="M232 331h10">
</path>
<g>
<path d="M242 331h0">
</path>
<path d="M286 331h0">
</path>
<rect x="242" y="320" width="44" height="22" rx="10" ry="10">
</rect>
<text x="264" y="335">
')'</text>
</g>
<path d="M286 331h10">
</path>
</g>
<path d="M332 331a10 10 0 0 0 10 -10v-280a10 10 0 0 1 10 -10">
</path>
<path d="M40 31a10 10 0 0 1 10 10v310a10 10 0 0 0 10 10">
</path>
<g>
<path d="M60 361h36">
</path>
<path d="M296 361h36">
</path>
<path d="M96 361h10">
</path>
<g>
<path d="M106 361h0">
</path>
<path d="M150 361h0">
</path>
<rect x="106" y="350" width="44" height="22" rx="10" ry="10">
</rect>
<text x="128" y="365">
'|'</text>
</g>
<path d="M150 361h10">
</path>
<path d="M160 361h10">
</path>
<g>
<path d="M170 361h0">
</path>
<path d="M222 361h0">
</path>
<rect x="170" y="350" width="52" height="22">
</rect>
<text x="196" y="365">
expr</text>
</g>
<path d="M222 361h10">
</path>
<path d="M232 361h10">
</path>
<g>
<path d="M242 361h0">
</path>
<path d="M286 361h0">
</path>
<rect x="242" y="350" width="44" height="22" rx="10" ry="10">
</rect>
<text x="264" y="365">
'|'</text>
</g>
<path d="M286 361h10">
</path>
</g>
<path d="M332 361a10 10 0 0 0 10 -10v-310a10 10 0 0 1 10 -10">
</path>
<path d="M40 31a10 10 0 0 1 10 10v340a10 10 0 0 0 10 10">
</path>
<g>
<path d="M60 391h36">
</path>
<path d="M296 391h36">
</path>
<path d="M96 391h10">
</path>
<g>
<path d="M106 391h0">
</path>
<path d="M150 391h0">
</path>
<rect x="106" y="380" width="44" height="22" rx="10" ry="10">
</rect>
<text x="128" y="395">
'⦃'</text>
</g>
<path d="M150 391h10">
</path>
<path d="M160 391h10">
</path>
<g>
<path d="M170 391h0">
</path>
<path d="M222 391h0">
</path>
<rect x="170" y="380" width="52" height="22">
</rect>
<text x="196" y="395">
expr</text>
</g>
<path d="M222 391h10">
</path>
<path d="M232 391h10">
</path>
<g>
<path d="M242 391h0">
</path>
<path d="M286 391h0">
</path>
<rect x="242" y="380" width="44" height="22" rx="10" ry="10">
</rect>
<text x="264" y="395">
'⦄'</text>
</g>
<path d="M286 391h10">
</path>
</g>
<path d="M332 391a10 10 0 0 0 10 -10v-340a10 10 0 0 1 10 -10">
</path>
<path d="M40 31a10 10 0 0 1 10 10v370a10 10 0 0 0 10 10">
</path>
<g>
<path d="M60 421h36">
</path>
<path d="M296 421h36">
</path>
<path d="M96 421h10">
</path>
<g>
<path d="M106 421h0">
</path>
<path d="M150 421h0">
</path>
<rect x="106" y="410" width="44" height="22" rx="10" ry="10">
</rect>
<text x="128" y="425">
'⦋'</text>
</g>
<path d="M150 421h10">
</path>
<path d="M160 421h10">
</path>
<g>
<path d="M170 421h0">
</path>
<path d="M222 421h0">
</path>
<rect x="170" y="410" width="52" height="22">
</rect>
<text x="196" y="425">
expr</text>
</g>
<path d="M222 421h10">
</path>
<path d="M232 421h10">
</path>
<g>
<path d="M242 421h0">
</path>
<path d="M286 421h0">
</path>
<rect x="242" y="410" width="44" height="22" rx="10" ry="10">
</rect>
<text x="264" y="425">
'⦌'</text>
</g>
<path d="M286 421h10">
</path>
</g>
<path d="M332 421a10 10 0 0 0 10 -10v-370a10 10 0 0 1 10 -10">
</path>
<path d="M40 31a10 10 0 0 1 10 10v400a10 10 0 0 0 10 10">
</path>
<g>
<path d="M60 451h0">
</path>
<path d="M332 451h0">
</path>
<path d="M60 451h10">
</path>
<g>
<path d="M70 451h0">
</path>
<path d="M114 451h0">
</path>
<rect x="70" y="440" width="44" height="22" rx="10" ry="10">
</rect>
<text x="92" y="455">
'⟪'</text>
</g>
<path d="M114 451h10">
</path>
<path d="M124 451h10">
</path>
<g>
<path d="M134 451h0">
</path>
<path d="M258 451h0">
</path>
<rect x="134" y="440" width="124" height="22">
</rect>
<text x="196" y="455">
in_tuple_pair</text>
</g>
<path d="M258 451h10">
</path>
<path d="M268 451h10">
</path>
<g>
<path d="M278 451h0">
</path>
<path d="M322 451h0">
</path>
<rect x="278" y="440" width="44" height="22" rx="10" ry="10">
</rect>
<text x="300" y="455">
'⟫'</text>
</g>
<path d="M322 451h10">
</path>
</g>
<path d="M332 451a10 10 0 0 0 10 -10v-400a10 10 0 0 1 10 -10">
</path>
<path d="M40 31a10 10 0 0 1 10 10v430a10 10 0 0 0 10 10">
</path>
<g>
<path d="M60 481h36">
</path>
<path d="M296 481h36">
</path>
<path d="M96 481h10">
</path>
<g>
<path d="M106 481h0">
</path>
<path d="M150 481h0">
</path>
<rect x="106" y="470" width="44" height="22" rx="10" ry="10">
</rect>
<text x="128" y="485">
'⌊'</text>
</g>
<path d="M150 481h10">
</path>
<path d="M160 481h10">
</path>
<g>
<path d="M170 481h0">
</path>
<path d="M222 481h0">
</path>
<rect x="170" y="470" width="52" height="22">
</rect>
<text x="196" y="485">
expr</text>
</g>
<path d="M222 481h10">
</path>
<path d="M232 481h10">
</path>
<g>
<path d="M242 481h0">
</path>
<path d="M286 481h0">
</path>
<rect x="242" y="470" width="44" height="22" rx="10" ry="10">
</rect>
<text x="264" y="485">
'⌋'</text>
</g>
<path d="M286 481h10">
</path>
</g>
<path d="M332 481a10 10 0 0 0 10 -10v-430a10 10 0 0 1 10 -10">
</path>
<path d="M40 31a10 10 0 0 1 10 10v460a10 10 0 0 0 10 10">
</path>
<g>
<path d="M60 511h36">
</path>
<path d="M296 511h36">
</path>
<path d="M96 511h10">
</path>
<g>
<path d="M106 511h0">
</path>
<path d="M150 511h0">
</path>
<rect x="106" y="500" width="44" height="22" rx="10" ry="10">
</rect>
<text x="128" y="515">
'⌈'</text>
</g>
<path d="M150 511h10">
</path>
<path d="M160 511h10">
</path>
<g>
<path d="M170 511h0">
</path>
<path d="M222 511h0">
</path>
<rect x="170" y="500" width="52" height="22">
</rect>
<text x="196" y="515">
expr</text>
</g>
<path d="M222 511h10">
</path>
<path d="M232 511h10">
</path>
<g>
<path d="M242 511h0">
</path>
<path d="M286 511h0">
</path>
<rect x="242" y="500" width="44" height="22" rx="10" ry="10">
</rect>
<text x="264" y="515">
'⌉'</text>
</g>
<path d="M286 511h10">
</path>
</g>
<path d="M332 511a10 10 0 0 0 10 -10v-460a10 10 0 0 1 10 -10">
</path>
<path d="M40 31a10 10 0 0 1 10 10v490a10 10 0 0 0 10 10">
</path>
<g>
<path d="M60 541h44">
</path>
<path d="M288 541h44">
</path>
<path d="M104 541h10">
</path>
<g>
<path d="M114 541h0">
</path>
<path d="M158 541h0">
</path>
<rect x="114" y="530" width="44" height="22" rx="10" ry="10">
</rect>
<text x="136" y="545">
'a'</text>
</g>
<path d="M158 541h10">
</path>
<path d="M168 541h10">
</path>
<g>
<path d="M178 541h0">
</path>
<path d="M278 541h0">
</path>
<rect x="178" y="530" width="100" height="22">
</rect>
<text x="228" y="545">
expr_block</text>
</g>
<path d="M278 541h10">
</path>
</g>
<path d="M332 541a10 10 0 0 0 10 -10v-490a10 10 0 0 1 10 -10">
</path>
<path d="M40 31a10 10 0 0 1 10 10v520a10 10 0 0 0 10 10">
</path>
<g>
<path d="M60 571h20">
</path>
<path d="M312 571h20">
</path>
<path d="M80 571h10">
</path>
<g>
<path d="M90 571h0">
</path>
<path d="M158 571h0">
</path>
<rect x="90" y="560" width="68" height="22" rx="10" ry="10">
</rect>
<text x="124" y="575">
LABELT</text>
</g>
<path d="M158 571h10">
</path>
<path d="M168 571h10">
</path>
<g>
<path d="M178 571h0">
</path>
<path d="M302 571h0">
</path>
<rect x="178" y="560" width="124" height="22" rx="10" ry="10">
</rect>
<text x="240" y="575">
EscapedString</text>
</g>
<path d="M302 571h10">
</path>
</g>
<path d="M332 571a10 10 0 0 0 10 -10v-520a10 10 0 0 1 10 -10">
</path>
<path d="M40 31a10 10 0 0 1 10 10v550a10 10 0 0 0 10 10">
</path>
<g>
<path d="M60 601h96">
</path>
<path d="M236 601h96">
</path>
<path d="M156 601h10">
</path>
<g>
<path d="M166 601h0">
</path>
<path d="M226 601h0">
</path>
<rect x="166" y="590" width="60" height="22" rx="10" ry="10">
</rect>
<text x="196" y="605">
START</text>
</g>
<path d="M226 601h10">
</path>
</g>
<path d="M332 601a10 10 0 0 0 10 -10v-550a10 10 0 0 1 10 -10">
</path>
<path d="M40 31a10 10 0 0 1 10 10v580a10 10 0 0 0 10 10">
</path>
<g>
<path d="M60 631h88">
</path>
<path d="M244 631h88">
</path>
<path d="M148 631h10">
</path>
<g>
<path d="M158 631h0">
</path>
<path d="M234 631h0">
</path>
<rect x="158" y="620" width="76" height="22" rx="10" ry="10">
</rect>
<text x="196" y="635">
VARNAME</text>
</g>
<path d="M234 631h10">
</path>
</g>
<path d="M332 631a10 10 0 0 0 10 -10v-580a10 10 0 0 1 10 -10">
</path>
</g>
<path d="M 352 31 h 20 m -10 -10 v 20 m 10 -20 v 20">
</path>
</g>
</svg>
