<svg xmlns="http://www.w3.org/2000/svg" xmlns:xlink="http://www.w3.org/1999/xlink" class="railroad-diagram" width="929" height="372" viewBox="0 0 929 372">
<style type="text/css">svg.railroad-diagram {
    background-color: hsl(30,20%,95%);
}
svg.railroad-diagram path {
    stroke-width: 3;
    stroke: black;
    fill-opacity: 0;
}
svg.railroad-diagram text {
    font: bold 14px monospace;
    text-anchor: middle;
}
svg.railroad-diagram text.label {
    text-anchor: start;
}
svg.railroad-diagram text.comment {
    font: italic 12px monospace;
}
svg.railroad-diagram rect {
    stroke-width: 3;
    stroke: black;
    fill: #9db0e5;
}
svg.railroad-diagram rect[rx~="10"] {
    fill: #c7a6d8;
}</style>
<g transform="translate(.5 .5)">
<path d="M 20 21 v 20 m 10 -20 v 20 m -10 -10 h 20.5">
</path>
<g>
<path d="M40 31h0">
</path>
<path d="M888 31h0">
</path>
<path d="M40 31h20">
</path>
<g>
<path d="M60 31h224">
</path>
<path d="M644 31h224">
</path>
<path d="M284 31h10">
</path>
<g>
<path d="M294 31h0">
</path>
<path d="M346 31h0">
</path>
<rect x="294" y="20" width="52" height="22" rx="10" ry="10">
</rect>
<text x="320" y="35">
'𝜉'</text>
</g>
<path d="M346 31h10">
</path>
<path d="M356 31h10">
</path>
<g>
<path d="M366 31h0">
</path>
<path d="M434 31h0">
</path>
<rect x="366" y="20" width="68" height="22" rx="10" ry="10">
</rect>
<text x="400" y="35">
OTHERS</text>
</g>
<path d="M434 31h10">
</path>
<path d="M444 31h10">
</path>
<g>
<path d="M454 31h0">
</path>
<path d="M498 31h0">
</path>
<rect x="454" y="20" width="44" height="22" rx="10" ry="10">
</rect>
<text x="476" y="35">
'@'</text>
</g>
<path d="M498 31h10">
</path>
<path d="M508 31h10">
</path>
<g>
<path d="M518 31h0">
</path>
<path d="M634 31h0">
</path>
<rect x="518" y="20" width="116" height="22">
</rect>
<text x="576" y="35">
rewrite_expr</text>
</g>
<path d="M634 31h10">
</path>
</g>
<path d="M868 31h20">
</path>
<path d="M40 31a10 10 0 0 1 10 10v10a10 10 0 0 0 10 10">
</path>
<g>
<path d="M60 61h228">
</path>
<path d="M640 61h228">
</path>
<path d="M288 61h10">
</path>
<g>
<path d="M298 61h0">
</path>
<path d="M342 61h0">
</path>
<rect x="298" y="50" width="44" height="22" rx="10" ry="10">
</rect>
<text x="320" y="65">
'ℓ'</text>
</g>
<path d="M342 61h10">
</path>
<path d="M352 61h10">
</path>
<g>
<path d="M362 61h0">
</path>
<path d="M430 61h0">
</path>
<rect x="362" y="50" width="68" height="22" rx="10" ry="10">
</rect>
<text x="396" y="65">
OTHERS</text>
</g>
<path d="M430 61h10">
</path>
<path d="M440 61h10">
</path>
<g>
<path d="M450 61h0">
</path>
<path d="M494 61h0">
</path>
<rect x="450" y="50" width="44" height="22" rx="10" ry="10">
</rect>
<text x="472" y="65">
'@'</text>
</g>
<path d="M494 61h10">
</path>
<path d="M504 61h10">
</path>
<g>
<path d="M514 61h0">
</path>
<path d="M630 61h0">
</path>
<rect x="514" y="50" width="116" height="22">
</rect>
<text x="572" y="65">
rewrite_expr</text>
</g>
<path d="M630 61h10">
</path>
</g>
<path d="M868 61a10 10 0 0 0 10 -10v-10a10 10 0 0 1 10 -10">
</path>
<path d="M40 31a10 10 0 0 1 10 10v40a10 10 0 0 0 10 10">
</path>
<g>
<path d="M60 91h200">
</path>
<path d="M668 91h200">
</path>
<path d="M260 91h10">
</path>
<g>
<path d="M270 91h0">
</path>
<path d="M322 91h0">
</path>
<rect x="270" y="80" width="52" height="22" rx="10" ry="10">
</rect>
<text x="296" y="95">
'𝜋'</text>
</g>
<path d="M322 91h10">
</path>
<path d="M332 91h10">
</path>
<g>
<path d="M342 91h0">
</path>
<path d="M458 91h0">
</path>
<rect x="342" y="80" width="116" height="22">
</rect>
<text x="400" y="95">
rewrite_expr</text>
</g>
<path d="M458 91h10">
</path>
<path d="M468 91h10">
</path>
<g>
<path d="M478 91h0">
</path>
<path d="M522 91h0">
</path>
<rect x="478" y="80" width="44" height="22" rx="10" ry="10">
</rect>
<text x="500" y="95">
'@'</text>
</g>
<path d="M522 91h10">
</path>
<path d="M532 91h10">
</path>
<g>
<path d="M542 91h0">
</path>
<path d="M658 91h0">
</path>
<rect x="542" y="80" width="116" height="22">
</rect>
<text x="600" y="95">
rewrite_expr</text>
</g>
<path d="M658 91h10">
</path>
</g>
<path d="M868 91a10 10 0 0 0 10 -10v-40a10 10 0 0 1 10 -10">
</path>
<path d="M40 31a10 10 0 0 1 10 10v70a10 10 0 0 0 10 10">
</path>
<g>
<path d="M60 121h204">
</path>
<path d="M664 121h204">
</path>
<path d="M264 121h10">
</path>
<g>
<path d="M274 121h0">
</path>
<path d="M318 121h0">
</path>
<rect x="274" y="110" width="44" height="22" rx="10" ry="10">
</rect>
<text x="296" y="125">
'φ'</text>
</g>
<path d="M318 121h10">
</path>
<path d="M328 121h10">
</path>
<g>
<path d="M338 121h0">
</path>
<path d="M454 121h0">
</path>
<rect x="338" y="110" width="116" height="22">
</rect>
<text x="396" y="125">
rewrite_expr</text>
</g>
<path d="M454 121h10">
</path>
<path d="M464 121h10">
</path>
<g>
<path d="M474 121h0">
</path>
<path d="M518 121h0">
</path>
<rect x="474" y="110" width="44" height="22" rx="10" ry="10">
</rect>
<text x="496" y="125">
','</text>
</g>
<path d="M518 121h10">
</path>
<path d="M528 121h10">
</path>
<g>
<path d="M538 121h0">
</path>
<path d="M654 121h0">
</path>
<rect x="538" y="110" width="116" height="22">
</rect>
<text x="596" y="125">
rewrite_expr</text>
</g>
<path d="M654 121h10">
</path>
</g>
<path d="M868 121a10 10 0 0 0 10 -10v-70a10 10 0 0 1 10 -10">
</path>
<path d="M40 31a10 10 0 0 1 10 10v100a10 10 0 0 0 10 10">
</path>
<g>
<path d="M60 151h288">
</path>
<path d="M580 151h288">
</path>
<path d="M348 151h10">
</path>
<g>
<path d="M358 151h0">
</path>
<path d="M434 151h0">
</path>
<rect x="358" y="140" width="76" height="22" rx="10" ry="10">
</rect>
<text x="396" y="155">
'label'</text>
</g>
<path d="M434 151h10">
</path>
<path d="M444 151h10">
</path>
<g>
<path d="M454 151h0">
</path>
<path d="M570 151h0">
</path>
<rect x="454" y="140" width="116" height="22">
</rect>
<text x="512" y="155">
rewrite_expr</text>
</g>
<path d="M570 151h10">
</path>
</g>
<path d="M868 151a10 10 0 0 0 10 -10v-100a10 10 0 0 1 10 -10">
</path>
<path d="M40 31a10 10 0 0 1 10 10v130a10 10 0 0 0 10 10">
</path>
<g>
<path d="M60 181h296">
</path>
<path d="M572 181h296">
</path>
<path d="M356 181h10">
</path>
<g>
<path d="M366 181h0">
</path>
<path d="M426 181h0">
</path>
<rect x="366" y="170" width="60" height="22" rx="10" ry="10">
</rect>
<text x="396" y="185">
'src'</text>
</g>
<path d="M426 181h10">
</path>
<path d="M436 181h10">
</path>
<g>
<path d="M446 181h0">
</path>
<path d="M562 181h0">
</path>
<rect x="446" y="170" width="116" height="22">
</rect>
<text x="504" y="185">
rewrite_expr</text>
</g>
<path d="M562 181h10">
</path>
</g>
<path d="M868 181a10 10 0 0 0 10 -10v-130a10 10 0 0 1 10 -10">
</path>
<path d="M40 31a10 10 0 0 1 10 10v160a10 10 0 0 0 10 10">
</path>
<g>
<path d="M60 211h296">
</path>
<path d="M572 211h296">
</path>
<path d="M356 211h10">
</path>
<g>
<path d="M366 211h0">
</path>
<path d="M426 211h0">
</path>
<rect x="366" y="200" width="60" height="22" rx="10" ry="10">
</rect>
<text x="396" y="215">
'dst'</text>
</g>
<path d="M426 211h10">
</path>
<path d="M436 211h10">
</path>
<g>
<path d="M446 211h0">
</path>
<path d="M562 211h0">
</path>
<rect x="446" y="200" width="116" height="22">
</rect>
<text x="504" y="215">
rewrite_expr</text>
</g>
<path d="M562 211h10">
</path>
</g>
<path d="M868 211a10 10 0 0 0 10 -10v-160a10 10 0 0 1 10 -10">
</path>
<path d="M40 31a10 10 0 0 1 10 10v200a10 10 0 0 0 10 10">
</path>
<g>
<path d="M60 251h0">
</path>
<path d="M868 251h0">
</path>
<path d="M60 251h10">
</path>
<g>
<path d="M70 251h0">
</path>
<path d="M106 251h0">
</path>
<rect x="70" y="240" width="36" height="22" rx="10" ry="10">
</rect>
<text x="88" y="255">
IF</text>
</g>
<path d="M106 251h10">
</path>
<path d="M116 251h10">
</path>
<g>
<path d="M126 251h0">
</path>
<path d="M178 251h0">
</path>
<rect x="126" y="240" width="52" height="22" rx="10" ry="10">
</rect>
<text x="152" y="255">
LPAR</text>
</g>
<path d="M178 251h10">
</path>
<path d="M188 251h10">
</path>
<g>
<path d="M198 251h0">
</path>
<path d="M290 251h0">
</path>
<rect x="198" y="240" width="92" height="22">
</rect>
<text x="244" y="255">
test_expr</text>
</g>
<path d="M290 251h10">
</path>
<path d="M300 251h10">
</path>
<g>
<path d="M310 251h0">
</path>
<path d="M362 251h0">
</path>
<rect x="310" y="240" width="52" height="22" rx="10" ry="10">
</rect>
<text x="336" y="255">
RPAR</text>
</g>
<path d="M362 251h10">
</path>
<path d="M372 251h10">
</path>
<g>
<path d="M382 251h0">
</path>
<path d="M434 251h0">
</path>
<rect x="382" y="240" width="52" height="22" rx="10" ry="10">
</rect>
<text x="408" y="255">
THEN</text>
</g>
<path d="M434 251h10">
</path>
<path d="M444 251h10">
</path>
<g>
<path d="M454 251h0">
</path>
<path d="M570 251h0">
</path>
<rect x="454" y="240" width="116" height="22">
</rect>
<text x="512" y="255">
rewrite_expr</text>
</g>
<path d="M570 251h10">
</path>
<g>
<path d="M580 251h0">
</path>
<path d="M868 251h0">
</path>
<path d="M580 251a10 10 0 0 0 10 -10v0a10 10 0 0 1 10 -10">
</path>
<g>
<path d="M600 231h248">
</path>
</g>
<path d="M848 231a10 10 0 0 1 10 10v0a10 10 0 0 0 10 10">
</path>
<path d="M580 251h20">
</path>
<g>
<path d="M600 251h0">
</path>
<path d="M848 251h0">
</path>
<path d="M600 251h20">
</path>
<g>
<path d="M620 251h0">
</path>
<path d="M828 251h0">
</path>
<path d="M620 251h10">
</path>
<g>
<path d="M630 251h0">
</path>
<path d="M682 251h0">
</path>
<rect x="630" y="240" width="52" height="22" rx="10" ry="10">
</rect>
<text x="656" y="255">
ELSE</text>
</g>
<path d="M682 251h10">
</path>
<path d="M692 251h10">
</path>
<g>
<path d="M702 251h0">
</path>
<path d="M818 251h0">
</path>
<rect x="702" y="240" width="116" height="22">
</rect>
<text x="760" y="255">
rewrite_expr</text>
</g>
<path d="M818 251h10">
</path>
</g>
<path d="M828 251h20">
</path>
</g>
<path d="M848 251h20">
</path>
</g>
</g>
<path d="M868 251a10 10 0 0 0 10 -10v-200a10 10 0 0 1 10 -10">
</path>
<path d="M40 31a10 10 0 0 1 10 10v230a10 10 0 0 0 10 10">
</path>
<g>
<path d="M60 281h360">
</path>
<path d="M508 281h360">
</path>
<path d="M420 281h10">
</path>
<g>
<path d="M430 281h0">
</path>
<path d="M498 281h0">
</path>
<rect x="430" y="270" width="68" height="22" rx="10" ry="10">
</rect>
<text x="464" y="285">
OTHERS</text>
</g>
<path d="M498 281h10">
</path>
</g>
<path d="M868 281a10 10 0 0 0 10 -10v-230a10 10 0 0 1 10 -10">
</path>
<path d="M40 31a10 10 0 0 1 10 10v260a10 10 0 0 0 10 10">
</path>
<g>
<path d="M60 311h264">
</path>
<path d="M604 311h264">
</path>
<path d="M324 311h10">
</path>
<g>
<path d="M334 311h0">
</path>
<path d="M386 311h0">
</path>
<rect x="334" y="300" width="52" height="22" rx="10" ry="10">
</rect>
<text x="360" y="315">
LPAR</text>
</g>
<path d="M386 311h10">
</path>
<path d="M396 311h10">
</path>
<g>
<path d="M406 311h0">
</path>
<path d="M522 311h0">
</path>
<rect x="406" y="300" width="116" height="22">
</rect>
<text x="464" y="315">
rewrite_expr</text>
</g>
<path d="M522 311h10">
</path>
<path d="M532 311h10">
</path>
<g>
<path d="M542 311h0">
</path>
<path d="M594 311h0">
</path>
<rect x="542" y="300" width="52" height="22" rx="10" ry="10">
</rect>
<text x="568" y="315">
RPAR</text>
</g>
<path d="M594 311h10">
</path>
</g>
<path d="M868 311a10 10 0 0 0 10 -10v-260a10 10 0 0 1 10 -10">
</path>
<path d="M40 31a10 10 0 0 1 10 10v290a10 10 0 0 0 10 10">
</path>
<g>
<path d="M60 341h280">
</path>
<path d="M588 341h280">
</path>
<path d="M340 341h10">
</path>
<g>
<path d="M350 341h0">
</path>
<path d="M434 341h0">
</path>
<rect x="350" y="330" width="84" height="22" rx="10" ry="10">
</rect>
<text x="392" y="345">
'SCRIPT'</text>
</g>
<path d="M434 341h10">
</path>
<path d="M444 341h10">
</path>
<g>
<path d="M454 341h0">
</path>
<path d="M578 341h0">
</path>
<rect x="454" y="330" width="124" height="22" rx="10" ry="10">
</rect>
<text x="516" y="345">
EscapedString</text>
</g>
<path d="M578 341h10">
</path>
</g>
<path d="M868 341a10 10 0 0 0 10 -10v-290a10 10 0 0 1 10 -10">
</path>
</g>
<path d="M 888 31 h 20 m -10 -10 v 20 m 10 -20 v 20">
</path>
</g>
</svg>
