<svg xmlns="http://www.w3.org/2000/svg" xmlns:xlink="http://www.w3.org/1999/xlink" class="railroad-diagram" width="545" height="122" viewBox="0 0 545 122">
<style type="text/css">svg.railroad-diagram {
    background-color: hsl(30,20%,95%);
}
svg.railroad-diagram path {
    stroke-width: 3;
    stroke: black;
    fill-opacity: 0;
}
svg.railroad-diagram text {
    font: bold 14px monospace;
    text-anchor: middle;
}
svg.railroad-diagram text.label {
    text-anchor: start;
}
svg.railroad-diagram text.comment {
    font: italic 12px monospace;
}
svg.railroad-diagram rect {
    stroke-width: 3;
    stroke: black;
    fill: #9db0e5;
}
svg.railroad-diagram rect[rx~="10"] {
    fill: #c7a6d8;
}</style>
<g transform="translate(.5 .5)">
<path d="M 20 21 v 20 m 10 -20 v 20 m -10 -10 h 20.5">
</path>
<g>
<path d="M40 31h0">
</path>
<path d="M504 31h0">
</path>
<path d="M40 31h20">
</path>
<g>
<path d="M60 31h128">
</path>
<path d="M356 31h128">
</path>
<path d="M188 31h10">
</path>
<g>
<path d="M198 31h0">
</path>
<path d="M258 31h0">
</path>
<rect x="198" y="20" width="60" height="22" rx="10" ry="10">
</rect>
<text x="228" y="35">
'del'</text>
</g>
<path d="M258 31h10">
</path>
<path d="M268 31h10">
</path>
<g>
<path d="M278 31h0">
</path>
<path d="M346 31h0">
</path>
<rect x="278" y="20" width="68" height="22" rx="10" ry="10">
</rect>
<text x="312" y="35">
OTHERS</text>
</g>
<path d="M346 31h10">
</path>
</g>
<path d="M484 31h20">
</path>
<path d="M40 31a10 10 0 0 1 10 10v10a10 10 0 0 0 10 10">
</path>
<g>
<path d="M60 61h128">
</path>
<path d="M356 61h128">
</path>
<path d="M188 61h10">
</path>
<g>
<path d="M198 61h0">
</path>
<path d="M258 61h0">
</path>
<rect x="198" y="50" width="60" height="22" rx="10" ry="10">
</rect>
<text x="228" y="65">
'new'</text>
</g>
<path d="M258 61h10">
</path>
<path d="M268 61h10">
</path>
<g>
<path d="M278 61h0">
</path>
<path d="M346 61h0">
</path>
<rect x="278" y="50" width="68" height="22" rx="10" ry="10">
</rect>
<text x="312" y="65">
OTHERS</text>
</g>
<path d="M346 61h10">
</path>
</g>
<path d="M484 61a10 10 0 0 0 10 -10v-10a10 10 0 0 1 10 -10">
</path>
<path d="M40 31a10 10 0 0 1 10 10v40a10 10 0 0 0 10 10">
</path>
<g>
<path d="M60 91h0">
</path>
<path d="M484 91h0">
</path>
<path d="M60 91h10">
</path>
<g>
<path d="M70 91h0">
</path>
<path d="M130 91h0">
</path>
<rect x="70" y="80" width="60" height="22" rx="10" ry="10">
</rect>
<text x="100" y="95">
'set'</text>
</g>
<path d="M130 91h10">
</path>
<path d="M140 91h10">
</path>
<g>
<path d="M150 91h0">
</path>
<path d="M266 91h0">
</path>
<rect x="150" y="80" width="116" height="22">
</rect>
<text x="208" y="95">
rewrite_expr</text>
</g>
<path d="M266 91h10">
</path>
<path d="M276 91h10">
</path>
<g>
<path d="M286 91h0">
</path>
<path d="M338 91h0">
</path>
<rect x="286" y="80" width="52" height="22" rx="10" ry="10">
</rect>
<text x="312" y="95">
'as'</text>
</g>
<path d="M338 91h10">
</path>
<path d="M348 91h10">
</path>
<g>
<path d="M358 91h0">
</path>
<path d="M474 91h0">
</path>
<rect x="358" y="80" width="116" height="22">
</rect>
<text x="416" y="95">
rewrite_expr</text>
</g>
<path d="M474 91h10">
</path>
</g>
<path d="M484 91a10 10 0 0 0 10 -10v-40a10 10 0 0 1 10 -10">
</path>
</g>
<path d="M 504 31 h 20 m -10 -10 v 20 m 10 -20 v 20">
</path>
</g>
</svg>
