<svg xmlns="http://www.w3.org/2000/svg" xmlns:xlink="http://www.w3.org/1999/xlink" class="railroad-diagram" width="449" height="122" viewBox="0 0 449 122">
<style type="text/css">svg.railroad-diagram {
    background-color: hsl(30,20%,95%);
}
svg.railroad-diagram path {
    stroke-width: 3;
    stroke: black;
    fill-opacity: 0;
}
svg.railroad-diagram text {
    font: bold 14px monospace;
    text-anchor: middle;
}
svg.railroad-diagram text.label {
    text-anchor: start;
}
svg.railroad-diagram text.comment {
    font: italic 12px monospace;
}
svg.railroad-diagram rect {
    stroke-width: 3;
    stroke: black;
    fill: #9db0e5;
}
svg.railroad-diagram rect[rx~="10"] {
    fill: #c7a6d8;
}</style>
<g transform="translate(.5 .5)">
<path d="M 20 21 v 20 m 10 -20 v 20 m -10 -10 h 20.5">
</path>
<g>
<path d="M40 31h0">
</path>
<path d="M408 31h0">
</path>
<path d="M40 31h20">
</path>
<g>
<path d="M60 31h0">
</path>
<path d="M388 31h0">
</path>
<path d="M60 31h10">
</path>
<g>
<path d="M70 31h0">
</path>
<path d="M122 31h0">
</path>
<rect x="70" y="20" width="52" height="22" rx="10" ry="10">
</rect>
<text x="96" y="35">
'--'</text>
</g>
<path d="M122 31h10">
</path>
<path d="M132 31h10">
</path>
<g>
<path d="M142 31h0">
</path>
<path d="M234 31h0">
</path>
<rect x="142" y="20" width="92" height="22">
</rect>
<text x="188" y="35">
edgelabel</text>
</g>
<path d="M234 31h10">
</path>
<path d="M244 31h10">
</path>
<g>
<path d="M254 31h0">
</path>
<path d="M306 31h0">
</path>
<rect x="254" y="20" width="52" height="22" rx="10" ry="10">
</rect>
<text x="280" y="35">
'->'</text>
</g>
<path d="M306 31h10">
</path>
<path d="M316 31h10">
</path>
<g>
<path d="M326 31h0">
</path>
<path d="M378 31h0">
</path>
<rect x="326" y="20" width="52" height="22">
</rect>
<text x="352" y="35">
node</text>
</g>
<path d="M378 31h10">
</path>
</g>
<path d="M388 31h20">
</path>
<path d="M40 31a10 10 0 0 1 10 10v10a10 10 0 0 0 10 10">
</path>
<g>
<path d="M60 61h0">
</path>
<path d="M388 61h0">
</path>
<path d="M60 61h10">
</path>
<g>
<path d="M70 61h0">
</path>
<path d="M122 61h0">
</path>
<rect x="70" y="50" width="52" height="22" rx="10" ry="10">
</rect>
<text x="96" y="65">
'&lt;-'</text>
</g>
<path d="M122 61h10">
</path>
<path d="M132 61h10">
</path>
<g>
<path d="M142 61h0">
</path>
<path d="M234 61h0">
</path>
<rect x="142" y="50" width="92" height="22">
</rect>
<text x="188" y="65">
edgelabel</text>
</g>
<path d="M234 61h10">
</path>
<path d="M244 61h10">
</path>
<g>
<path d="M254 61h0">
</path>
<path d="M306 61h0">
</path>
<rect x="254" y="50" width="52" height="22" rx="10" ry="10">
</rect>
<text x="280" y="65">
'--'</text>
</g>
<path d="M306 61h10">
</path>
<path d="M316 61h10">
</path>
<g>
<path d="M326 61h0">
</path>
<path d="M378 61h0">
</path>
<rect x="326" y="50" width="52" height="22">
</rect>
<text x="352" y="65">
node</text>
</g>
<path d="M378 61h10">
</path>
</g>
<path d="M388 61a10 10 0 0 0 10 -10v-10a10 10 0 0 1 10 -10">
</path>
<path d="M40 31a10 10 0 0 1 10 10v40a10 10 0 0 0 10 10">
</path>
<g>
<path d="M60 91h28">
</path>
<path d="M360 91h28">
</path>
<path d="M88 91h10">
</path>
<g>
<path d="M98 91h0">
</path>
<path d="M150 91h0">
</path>
<rect x="98" y="80" width="52" height="22" rx="10" ry="10">
</rect>
<text x="124" y="95">
'--'</text>
</g>
<path d="M150 91h10">
</path>
<path d="M160 91h10">
</path>
<g>
<path d="M170 91h0">
</path>
<path d="M262 91h0">
</path>
<rect x="170" y="80" width="92" height="22">
</rect>
<text x="216" y="95">
edgelabel</text>
</g>
<path d="M262 91h10">
</path>
<path d="M272 91h10">
</path>
<g>
<path d="M282 91h0">
</path>
<path d="M350 91h0">
</path>
<rect x="282" y="80" width="68" height="22" rx="10" ry="10">
</rect>
<text x="316" y="95">
'hook'</text>
</g>
<path d="M350 91h10">
</path>
</g>
<path d="M388 91a10 10 0 0 0 10 -10v-40a10 10 0 0 1 10 -10">
</path>
</g>
<path d="M 408 31 h 20 m -10 -10 v 20 m 10 -20 v 20">
</path>
</g>
</svg>
